<?xml version="1.0" standalone="no"?>
<!DOCTYPE svg PUBLIC "-//W3C//DTD SVG 20010904//EN"
 "http://www.w3.org/TR/2001/REC-SVG-20010904/DTD/svg10.dtd">
<svg version="1.0" xmlns="http://www.w3.org/2000/svg"
 width="512.000000pt" height="512.000000pt" viewBox="0 0 512.000000 512.000000"
 preserveAspectRatio="xMidYMid meet">
<metadata>
Created by potrace 1.14, written by Peter Selinger 2001-2017
</metadata>
<g transform="translate(0.000000,512.000000) scale(0.100000,-0.100000)"
fill="#000000" stroke="none">
<path d="M2399 5116 c-2 -2 -40 -6 -84 -10 -44 -4 -89 -9 -100 -11 -11 -3 -38
-7 -60 -9 -134 -15 -350 -75 -543 -150 -207 -81 -464 -231 -647 -376 -106 -85
-306 -284 -394 -393 -277 -344 -484 -807 -537 -1202 -3 -27 -8 -59 -10 -70
-34 -176 -22 -582 22 -810 2 -11 7 -33 10 -50 28 -159 118 -422 206 -600 268
-541 718 -978 1248 -1209 47 -21 94 -41 105 -46 124 -56 443 -140 586 -155 24
-3 55 -7 69 -11 56 -13 476 -12 585 1 324 42 619 132 873 267 53 28 112 58
130 67 17 8 32 19 32 23 0 4 5 8 11 8 6 0 53 30 105 66 422 294 740 688 927
1149 45 110 104 288 113 342 3 15 7 36 10 45 3 10 7 28 10 40 2 13 6 34 9 48
8 31 10 50 20 125 4 33 10 69 12 80 3 11 7 126 8 255 3 247 -7 359 -46 545
-162 774 -661 1420 -1369 1776 -76 38 -141 69 -145 69 -4 0 -21 6 -38 14 -99
45 -376 126 -487 141 -24 4 -47 8 -50 10 -3 2 -34 6 -70 10 -36 4 -76 9 -90
11 -33 6 -416 15 -421 10z m431 -159 c14 -3 48 -8 75 -11 51 -6 206 -37 280
-56 22 -6 45 -12 50 -13 116 -31 335 -122 480 -200 90 -48 292 -179 330 -214
11 -10 42 -36 70 -58 75 -60 243 -230 315 -319 259 -319 450 -740 510 -1126 6
-41 13 -86 16 -100 21 -125 21 -486 0 -610 -3 -14 -7 -41 -10 -60 -21 -129
-52 -261 -93 -385 -20 -60 -39 -114 -43 -120 -3 -5 -15 -32 -25 -60 -43 -118
-175 -353 -273 -485 -114 -154 -213 -261 -378 -411 -109 -98 -340 -252 -496
-329 -76 -39 -289 -127 -327 -136 -9 -2 -65 -17 -126 -34 -60 -17 -123 -33
-140 -35 -16 -3 -43 -8 -60 -12 -38 -8 -45 -9 -130 -18 -38 -4 -83 -9 -100
-11 -38 -4 -348 -4 -395 0 -385 38 -732 150 -1041 339 -222 135 -432 312 -588
497 -25 30 -54 64 -65 75 -10 11 -59 81 -108 155 -97 146 -206 357 -263 513
-33 91 -88 288 -100 360 -3 18 -10 58 -16 90 -24 139 -33 487 -15 637 75 645
391 1220 890 1621 239 191 514 336 811 427 95 29 122 36 190 48 17 3 50 10 75
15 108 25 264 36 465 34 116 -2 221 -5 235 -8z"/>
<path d="M2427 4844 c-1 -1 -36 -5 -77 -8 -368 -33 -740 -164 -1050 -371 -141
-94 -240 -176 -364 -300 -96 -96 -246 -280 -246 -302 0 -5 54 -103 120 -218
66 -115 120 -212 120 -217 0 -4 5 -8 10 -8 6 0 10 -4 10 -8 0 -8 136 -246 353
-620 l65 -113 55 93 c30 51 69 120 88 153 18 33 37 62 41 63 4 2 8 9 8 15 0 7
18 40 40 75 22 34 40 65 40 67 0 3 47 85 104 183 119 204 275 475 395 684 10
18 116 201 235 407 119 205 216 377 216 381 0 4 7 13 15 20 9 7 13 16 9 19 -5
5 -181 9 -187 5z"/>
<path d="M2714 4772 c-21 -37 -43 -76 -50 -87 -6 -11 -95 -166 -199 -345 -103
-179 -196 -341 -207 -360 -11 -19 -37 -64 -58 -100 -36 -61 -49 -85 -107 -187
l-25 -43 1252 0 1252 0 -32 57 c-92 164 -214 319 -374 478 -241 239 -515 412
-841 530 -93 34 -308 90 -380 99 -22 3 -53 8 -70 10 -16 3 -51 7 -76 10 l-46
4 -39 -66z"/>
<path d="M588 3714 c-125 -202 -245 -535 -282 -779 -14 -92 -17 -115 -22 -170
-9 -85 -9 -304 -1 -409 6 -73 37 -255 61 -365 11 -49 78 -243 111 -323 l35
-83 682 0 c427 1 682 5 681 10 -1 8 -208 370 -282 495 -26 43 -257 442 -284
490 -10 19 -61 107 -112 195 -51 88 -102 176 -113 195 -32 56 -133 232 -152
265 -9 17 -59 102 -110 190 -51 88 -103 178 -115 200 -13 22 -34 60 -48 84
l-25 44 -24 -39z"/>
<path d="M3276 3532 c-11 -3 -14 -7 -8 -15 5 -7 54 -88 107 -182 54 -93 130
-224 168 -290 38 -66 77 -133 87 -150 24 -42 202 -350 221 -383 9 -15 27 -47
41 -72 14 -25 74 -128 133 -230 59 -102 117 -201 128 -220 11 -19 62 -109 115
-200 52 -91 127 -221 167 -290 40 -69 76 -124 81 -124 15 2 172 317 173 349 0
3 8 19 16 35 16 32 81 250 90 303 3 18 8 39 10 47 7 23 15 76 30 185 13 99 14
466 1 530 -8 41 -15 82 -22 135 -15 115 -86 354 -144 485 -9 22 -21 50 -24 63
-7 21 -13 22 -99 22 -828 4 -1257 4 -1271 2z"/>
<path d="M3743 2418 c-5 -7 -34 -56 -63 -108 -29 -52 -60 -103 -68 -112 -8
-10 -11 -18 -7 -18 4 0 2 -8 -6 -17 -8 -10 -20 -29 -28 -43 -18 -32 -82 -142
-451 -780 -164 -283 -307 -531 -318 -550 -11 -19 -79 -137 -151 -262 -72 -125
-134 -235 -138 -244 -6 -16 5 -16 134 -10 122 6 234 18 363 41 203 35 519 155
705 268 178 108 338 232 472 369 87 87 220 245 242 286 8 14 -6 45 -66 148
-78 134 -105 182 -150 262 -24 44 -51 90 -80 137 -52 86 -179 312 -181 322 -2
7 -8 13 -13 13 -5 0 -9 4 -9 9 0 10 -154 279 -168 293 -5 5 -13 3 -19 -4z"/>
<path d="M594 1396 c141 -238 341 -469 541 -624 44 -34 86 -67 93 -73 28 -24
200 -128 282 -171 135 -71 369 -161 475 -183 14 -3 37 -7 52 -11 15 -3 30 -7
34 -10 12 -7 240 -40 273 -40 28 1 40 20 258 396 329 570 448 777 448 782 0 2
-562 4 -1249 4 l-1248 0 41 -70z"/>
</g>
</svg>
