<?xml version="1.0" standalone="no"?>
<!DOCTYPE svg PUBLIC "-//W3C//DTD SVG 20010904//EN"
 "http://www.w3.org/TR/2001/REC-SVG-20010904/DTD/svg10.dtd">
<svg version="1.0" xmlns="http://www.w3.org/2000/svg"
 width="512.000000pt" height="512.000000pt" viewBox="0 0 512.000000 512.000000"
 preserveAspectRatio="xMidYMid meet">
<metadata>
Created by potrace 1.14, written by Peter Selinger 2001-2017
</metadata>
<g transform="translate(0.000000,512.000000) scale(0.100000,-0.100000)"
fill="#000000" stroke="none">
<path d="M846 5109 c-109 -26 -219 -117 -273 -227 -26 -52 -28 -67 -28 -167 0
-103 2 -114 32 -176 124 -252 448 -309 648 -114 161 157 162 418 1 578 -94 94
-247 137 -380 106z"/>
<path d="M630 2424 l0 -1654 315 0 315 0 0 1655 0 1654 -47 -20 c-159 -68
-385 -68 -540 1 l-43 19 0 -1655z"/>
<path d="M1570 2960 l0 -1070 400 0 400 0 0 1070 0 1070 -400 0 -400 0 0
-1070z"/>
<path d="M2670 2960 l0 -1070 405 0 405 0 0 1070 0 1070 -405 0 -405 0 0
-1070z"/>
<path d="M3780 2960 l0 -1070 400 0 400 0 0 1070 0 1070 -400 0 -400 0 0
-1070z"/>
<path d="M630 150 l0 -150 315 0 315 0 0 150 0 150 -315 0 -315 0 0 -150z"/>
</g>
</svg>
